<?xml version="1.0" encoding="UTF-8" standalone="no"?>
<svg
   xmlns:dc="http://purl.org/dc/elements/1.1/"
   xmlns:cc="http://creativecommons.org/ns#"
   xmlns:rdf="http://www.w3.org/1999/02/22-rdf-syntax-ns#"
   xmlns:svg="http://www.w3.org/2000/svg"
   xmlns="http://www.w3.org/2000/svg"
   xmlns:sodipodi="http://sodipodi.sourceforge.net/DTD/sodipodi-0.dtd"
   xmlns:inkscape="http://www.inkscape.org/namespaces/inkscape"
   viewBox="0 0 650.72 270.5"
   version="1.1"
   id="svg135"
   sodipodi:docname="long.svg"
   inkscape:version="0.92.4 (5da689c313, 2019-01-14)">
  <metadata
     id="metadata139">
    <rdf:RDF>
      <cc:Work
         rdf:about="">
        <dc:format>image/svg+xml</dc:format>
        <dc:type
           rdf:resource="http://purl.org/dc/dcmitype/StillImage" />
      </cc:Work>
    </rdf:RDF>
  </metadata>
  <sodipodi:namedview
     pagecolor="#ffffff"
     bordercolor="#666666"
     borderopacity="1"
     objecttolerance="10"
     gridtolerance="10"
     guidetolerance="10"
     inkscape:pageopacity="0"
     inkscape:pageshadow="2"
     inkscape:window-width="1099"
     inkscape:window-height="640"
     id="namedview137"
     showgrid="false"
     inkscape:zoom="0.43643966"
     inkscape:cx="325.35999"
     inkscape:cy="135.25"
     inkscape:window-x="418"
     inkscape:window-y="72"
     inkscape:window-maximized="0"
     inkscape:current-layer="svg135" />
  <defs
     id="defs4">
    <style
       id="style2">.cls-1{fill:#ffffff;}</style>
  </defs>
  <title
     id="title6">[AS-Logo][Long][Noir][Vector]</title>
  <g
     id="Calque_8"
     data-name="Calque 8"
     style="fill:#ffffff">
    <polygon
       points="201.5 187 221.03 187 221.03 111.09 201.5 140.75 201.5 187"
       id="polygon8"
       style="fill:#ffffff" />
    <path
       d="M416.66,415.41q39.06,0,39.06-39.06t-39.06-39.06H319v29.77l16.93-6.35L324.5,381v14.09l-5.5,8.12v1.6l19.53-29.72v-18.3h12l.67-1,19-5.85-4.52,6.86h50.94q19.53,0,19.53,19.53t-19.53,19.53H348.3L426.42,474h29.3l-58.6-58.6Z"
       transform="translate(-117.5 -287)"
       id="path10"
       style="fill:#ffffff" />
    <polygon
       points="494.47 50.28 465.17 50.28 406.58 108.88 377.28 108.88 377.28 50.28 357.75 50.28 357.75 187 377.28 187 377.28 128.41 406.58 128.41 465.17 187 494.15 186.68 426.11 118.64 494.47 50.28"
       id="polygon12"
       style="fill:#ffffff" />
    <path
       d="M670.56,356.81h97.66V337.28H670.56q-39.06,0-39.06,39.06t39.06,39.06h58.59q19.53,0,19.53,19.53t-19.53,19.53H631.5V474h97.66q39.06,0,39.06-39.06t-39.06-39.06H670.56q-19.53,0-19.53-19.53T670.56,356.81Z"
       transform="translate(-117.5 -287)"
       id="path14"
       style="fill:#ffffff" />
  </g>
  <g
     id="Calque_7"
     data-name="Calque 7"
     style="fill:#ffffff">
    <path
       d="M417.69,476.15a1.21,1.21,0,0,1,1,.5,2,2,0,0,1,0,2.43,1.2,1.2,0,0,1-1,.5H391a6.64,6.64,0,0,0-5.33,2.75,11.11,11.11,0,0,0,0,13.29,6.63,6.63,0,0,0,5.33,2.75h17.82a9,9,0,0,1,7.27,3.76,15.11,15.11,0,0,1,0,18.12,9,9,0,0,1-7.27,3.76H382a1.21,1.21,0,0,1-1-.5,2,2,0,0,1,0-2.43,1.21,1.21,0,0,1,1-.5h26.74a6.63,6.63,0,0,0,5.33-2.75,11.11,11.11,0,0,0,0-13.29,6.63,6.63,0,0,0-5.33-2.75H391a9,9,0,0,1-7.27-3.76,15.11,15.11,0,0,1,0-18.12,9,9,0,0,1,7.27-3.76Z"
       transform="translate(-117.5 -287)"
       id="path17"
       style="fill:#ffffff" />
    <path
       d="M436.35,479.26a.79.79,0,0,1-.16-.21,1.77,1.77,0,0,1-.41-1.2,1.88,1.88,0,0,1,.4-1.21,1.21,1.21,0,0,1,1-.5,1.26,1.26,0,0,1,1,.48l16.87,21,16.67-20.78.16-.21a1.18,1.18,0,0,1,1-.48,1.21,1.21,0,0,1,1,.5,1.88,1.88,0,0,1,.4,1.21,1.85,1.85,0,0,1-.38,1.2l-.16.21-17.28,21.53v21.5a1.87,1.87,0,0,1-.4,1.21,1.2,1.2,0,0,1-1.95,0,1.87,1.87,0,0,1-.4-1.21V500.76Z"
       transform="translate(-117.5 -287)"
       id="path19"
       style="fill:#ffffff" />
    <path
       d="M527.91,476.15a1.21,1.21,0,0,1,1,.5,2,2,0,0,1,0,2.43,1.2,1.2,0,0,1-1,.5H501.17a6.64,6.64,0,0,0-5.33,2.75,11.11,11.11,0,0,0,0,13.29,6.63,6.63,0,0,0,5.33,2.75H519a9,9,0,0,1,7.27,3.76,15.11,15.11,0,0,1,0,18.12A9,9,0,0,1,519,524H492.26a1.21,1.21,0,0,1-1-.5,2,2,0,0,1,0-2.43,1.21,1.21,0,0,1,1-.5H519a6.63,6.63,0,0,0,5.33-2.75,11.11,11.11,0,0,0,0-13.29,6.63,6.63,0,0,0-5.33-2.75H501.17A9,9,0,0,1,493.9,498a15.11,15.11,0,0,1,0-18.12,9,9,0,0,1,7.27-3.76Z"
       transform="translate(-117.5 -287)"
       id="path21"
       style="fill:#ffffff" />
    <path
       d="M547.37,479.57a1.21,1.21,0,0,1-1-.5,2,2,0,0,1,0-2.43,1.21,1.21,0,0,1,1-.5H583a1.21,1.21,0,0,1,1,.5,2,2,0,0,1,0,2.43,1.2,1.2,0,0,1-1,.5H566.56v42.72a1.87,1.87,0,0,1-.4,1.21,1.2,1.2,0,0,1-1.95,0,1.87,1.87,0,0,1-.4-1.21V479.57Z"
       transform="translate(-117.5 -287)"
       id="path23"
       style="fill:#ffffff" />
    <path
       d="M602.48,476.15h35.65a1.21,1.21,0,0,1,1,.5,2,2,0,0,1,0,2.43,1.2,1.2,0,0,1-1,.5H603.85v18.8h34.28a1.21,1.21,0,0,1,1,.5,2,2,0,0,1,0,2.43,1.2,1.2,0,0,1-1,.5H603.85v18.8h34.28a1.21,1.21,0,0,1,1,.5,2,2,0,0,1,0,2.43,1.2,1.2,0,0,1-1,.5H602.48a1.21,1.21,0,0,1-1-.5,1.87,1.87,0,0,1-.4-1.21V477.86a1.88,1.88,0,0,1,.4-1.21A1.21,1.21,0,0,1,602.48,476.15Z"
       transform="translate(-117.5 -287)"
       id="path25"
       style="fill:#ffffff" />
    <path
       d="M656.21,477.86a1.88,1.88,0,0,1,.4-1.21,1.21,1.21,0,0,1,1-.5,1.26,1.26,0,0,1,1,.48l16.87,21,16.67-20.78.17-.21a1.18,1.18,0,0,1,1-.48,1.21,1.21,0,0,1,1,.5,1.88,1.88,0,0,1,.4,1.21v44.43a1.88,1.88,0,0,1-.4,1.21,1.2,1.2,0,0,1-1.95,0,1.87,1.87,0,0,1-.4-1.21V482L676.4,501.27l-.17.21a1.22,1.22,0,0,1-.82.31,1.16,1.16,0,0,1-1-.51.8.8,0,0,1-.16-.21L659,482v40.33a1.88,1.88,0,0,1-.4,1.21,1.2,1.2,0,0,1-1.95,0,1.88,1.88,0,0,1-.4-1.21Z"
       transform="translate(-117.5 -287)"
       id="path27"
       style="fill:#ffffff" />
  </g>
  <g
     id="Calque_6"
     data-name="Calque 6"
     style="fill:#ffffff">
    <polygon
       class="cls-1"
       points="116 141.5 105.78 126.17 98.13 147.43 115.15 147.43 113 144.5 116 141.5"
       id="polygon30"
       style="fill:#ffffff" />
    <polygon
       class="cls-1"
       points="135 144.5 132.85 147.43 150.48 147.43 142.56 125.66 132 141.5 135 144.5"
       id="polygon32"
       style="fill:#ffffff" />
    <polygon
       class="cls-1"
       points="74 92.5 34 77.5 43 93.5 43 107.5 64 138.5 75.71 145.9 87.28 113.9 74 92.5"
       id="polygon34"
       style="fill:#ffffff" />
    <polygon
       class="cls-1"
       points="175.06 214.99 154 207.5 146 193.5 142 192.5 131.49 170.52 116.51 170.52 106 192.5 102 193.5 94 207.5 73.95 214.63 71.26 222.1 99 212.5 108 198.5 114 198.5 124 175.5 134 198.5 140 198.5 149 212.5 201 230.5 199 223.5 195.95 222.42 177.76 222.42 175.06 214.99"
       id="polygon36"
       style="fill:#ffffff" />
    <polygon
       class="cls-1"
       points="49 223.5 47 230.5 70.35 222.42 52.05 222.42 49 223.5"
       id="polygon38"
       style="fill:#ffffff" />
    <polygon
       class="cls-1"
       points="184 138.5 205 107.5 205 93.5 214 77.5 174 92.5 161.19 113.14 172.98 145.46 184 138.5"
       id="polygon40"
       style="fill:#ffffff" />
    <polygon
       class="cls-1"
       points="194 148.5 248 66.5 235 70.5 189 140.5 174.01 148.29 176.62 155.45 194 148.5"
       id="polygon42"
       style="fill:#ffffff" />
    <polygon
       class="cls-1"
       points="144 188.5 148 190.5 153 196.5 170.63 202.83 158.88 170.52 138.54 170.52 135 171.5 144 188.5"
       id="polygon44"
       style="fill:#ffffff" />
    <polygon
       class="cls-1"
       points="132 204.5 143 223.5 145 217.5 134 204.5 132 204.5"
       id="polygon46"
       style="fill:#ffffff" />
    <polygon
       class="cls-1"
       points="129 198.5 124 184.5 119 198.5 119 205.5 106 227.5 124 270.5 142 227.5 129 205.5 129 198.5"
       id="polygon48"
       style="fill:#ffffff" />
    <polygon
       class="cls-1"
       points="134.41 103.26 124.16 75.09 113.81 103.87 124 132.5 134.41 103.26"
       id="polygon50"
       style="fill:#ffffff" />
    <polygon
       class="cls-1"
       points="146.15 71.92 148.5 63 124 0 99.5 63 102.11 72.92 124.22 11.79 146.15 71.92"
       id="polygon52"
       style="fill:#ffffff" />
    <polygon
       class="cls-1"
       points="124.65 147.43 140.8 120.83 137.56 111.92 136 112.5 124 140.5 112 112.5 110.86 112.07 107.52 121.35 123.35 147.43 124.65 147.43"
       id="polygon54"
       style="fill:#ffffff" />
    <polygon
       class="cls-1"
       points="92 82.5 89 91.5 92.65 99.07 95.66 90.74 92 82.5"
       id="polygon56"
       style="fill:#ffffff" />
    <polygon
       class="cls-1"
       points="159 91.5 156 82.5 152.71 89.9 155.75 98.23 159 91.5"
       id="polygon58"
       style="fill:#ffffff" />
    <polygon
       class="cls-1"
       points="59 140.5 13 70.5 0 66.5 54 148.5 72.14 155.76 74.71 148.67 59 140.5"
       id="polygon60"
       style="fill:#ffffff" />
    <polygon
       class="cls-1"
       points="100 190.5 104 188.5 113 171.5 109.46 170.52 89.82 170.52 78.32 202.49 95 196.5 100 190.5"
       id="polygon62"
       style="fill:#ffffff" />
    <polygon
       class="cls-1"
       points="114 204.5 103 217.5 105 223.5 116 204.5 114 204.5"
       id="polygon64"
       style="fill:#ffffff" />
    <polygon
       class="cls-1"
       points="71.15 222.42 71.26 222.1 70.35 222.42 71.15 222.42"
       id="polygon66"
       style="fill:#ffffff" />
    <polygon
       class="cls-1"
       points="176.62 155.45 164 160.5 161 158.5 147 162.5 149 158.5 161 152.5 164 153.5 174.01 148.29 172.98 145.46 165 150.5 160 148.5 147 155.5 143 164.5 131 169.5 131.49 170.52 138.54 170.52 153 166.5 161 171.5 173 171.5 192 210.5 195.95 222.42 201.05 222.42 176.62 155.45"
       id="polygon68"
       style="fill:#ffffff" />
    <polygon
       class="cls-1"
       points="56 210.5 75 171.5 87 171.5 95 166.5 109.46 170.52 116.51 170.52 117 169.5 105 164.5 101 155.5 88 148.5 83 150.5 75.71 145.9 74.71 148.67 84 153.5 87 152.5 99 158.5 101 162.5 87 158.5 84 160.5 72.14 155.76 48.03 222.42 52.05 222.42 56 210.5"
       id="polygon70"
       style="fill:#ffffff" />
    <polygon
       class="cls-1"
       points="124 148.5 123.35 147.43 115.15 147.43 124 159.5 132.85 147.43 124.65 147.43 124 148.5"
       id="polygon72"
       style="fill:#ffffff" />
    <polygon
       class="cls-1"
       points="134.5 103 134.41 103.26 137.56 111.92 144 109.5 152.71 89.9 146.15 71.92 138.5 101 134.5 103"
       id="polygon74"
       style="fill:#ffffff" />
    <polygon
       class="cls-1"
       points="141 120.5 140.8 120.83 142.56 125.66 144 123.5 156 121.5 161.19 113.14 155.75 98.23 145 120.5 141 120.5"
       id="polygon76"
       style="fill:#ffffff" />
    <polygon
       class="cls-1"
       points="110.86 112.07 113.81 103.87 113.5 103 109.5 101 102.11 72.92 95.66 90.74 104 109.5 110.86 112.07"
       id="polygon78"
       style="fill:#ffffff" />
    <polygon
       class="cls-1"
       points="104 123.5 105.78 126.17 107.52 121.35 107 120.5 103 120.5 92.65 99.07 87.28 113.9 92 121.5 104 123.5"
       id="polygon80"
       style="fill:#ffffff" />
    <polygon
       points="116 141.5 105.78 126.17 98.13 147.43 115.15 147.43 113 144.5 116 141.5"
       id="polygon82"
       style="fill:#ffffff" />
    <polygon
       points="135 144.5 132.85 147.43 150.48 147.43 142.56 125.66 132 141.5 135 144.5"
       id="polygon84"
       style="fill:#ffffff" />
    <polygon
       points="74 92.5 34 77.5 43 93.5 43 107.5 64 138.5 75.71 145.9 87.28 113.9 74 92.5"
       id="polygon86"
       style="fill:#ffffff" />
    <polygon
       points="175.06 214.99 154 207.5 146 193.5 142 192.5 131.49 170.52 116.51 170.52 106 192.5 102 193.5 94 207.5 73.95 214.63 71.26 222.1 99 212.5 108 198.5 114 198.5 124 175.5 134 198.5 140 198.5 149 212.5 201 230.5 199 223.5 195.95 222.42 177.76 222.42 175.06 214.99"
       id="polygon88"
       style="fill:#ffffff" />
    <polygon
       points="49 223.5 47 230.5 70.35 222.42 52.05 222.42 49 223.5"
       id="polygon90"
       style="fill:#ffffff" />
    <polygon
       points="184 138.5 205 107.5 205 93.5 214 77.5 174 92.5 161.19 113.14 172.98 145.46 184 138.5"
       id="polygon92"
       style="fill:#ffffff" />
    <polygon
       points="194 148.5 248 66.5 235 70.5 189 140.5 174.01 148.29 176.62 155.45 194 148.5"
       id="polygon94"
       style="fill:#ffffff" />
    <polygon
       points="144 188.5 148 190.5 153 196.5 170.63 202.83 158.88 170.52 138.54 170.52 135 171.5 144 188.5"
       id="polygon96"
       style="fill:#ffffff" />
    <polygon
       points="132 204.5 143 223.5 145 217.5 134 204.5 132 204.5"
       id="polygon98"
       style="fill:#ffffff" />
    <polygon
       points="129 198.5 124 184.5 119 198.5 119 205.5 106 227.5 124 270.5 142 227.5 129 205.5 129 198.5"
       id="polygon100"
       style="fill:#ffffff" />
    <polygon
       points="134.41 103.26 124.16 75.09 113.81 103.87 124 132.5 134.41 103.26"
       id="polygon102"
       style="fill:#ffffff" />
    <polygon
       points="146.15 71.92 148.5 63 124 0 99.5 63 102.11 72.92 124.22 11.79 146.15 71.92"
       id="polygon104"
       style="fill:#ffffff" />
    <polygon
       points="124.65 147.43 140.8 120.83 137.56 111.92 136 112.5 124 140.5 112 112.5 110.86 112.07 107.52 121.35 123.35 147.43 124.65 147.43"
       id="polygon106"
       style="fill:#ffffff" />
    <polygon
       points="92 82.5 89 91.5 92.65 99.07 95.66 90.74 92 82.5"
       id="polygon108"
       style="fill:#ffffff" />
    <polygon
       points="159 91.5 156 82.5 152.71 89.9 155.75 98.23 159 91.5"
       id="polygon110"
       style="fill:#ffffff" />
    <polygon
       points="59 140.5 13 70.5 0 66.5 54 148.5 72.14 155.76 74.71 148.67 59 140.5"
       id="polygon112"
       style="fill:#ffffff" />
    <polygon
       points="100 190.5 104 188.5 113 171.5 109.46 170.52 89.82 170.52 78.32 202.49 95 196.5 100 190.5"
       id="polygon114"
       style="fill:#ffffff" />
    <polygon
       points="114 204.5 103 217.5 105 223.5 116 204.5 114 204.5"
       id="polygon116"
       style="fill:#ffffff" />
    <polygon
       points="71.15 222.42 71.26 222.1 70.35 222.42 71.15 222.42"
       id="polygon118"
       style="fill:#ffffff" />
    <polygon
       points="176.62 155.45 164 160.5 161 158.5 147 162.5 149 158.5 161 152.5 164 153.5 174.01 148.29 172.98 145.46 165 150.5 160 148.5 147 155.5 143 164.5 131 169.5 131.49 170.52 138.54 170.52 153 166.5 161 171.5 173 171.5 192 210.5 195.95 222.42 201.05 222.42 176.62 155.45"
       id="polygon120"
       style="fill:#ffffff" />
    <polygon
       points="56 210.5 75 171.5 87 171.5 95 166.5 109.46 170.52 116.51 170.52 117 169.5 105 164.5 101 155.5 88 148.5 83 150.5 75.71 145.9 74.71 148.67 84 153.5 87 152.5 99 158.5 101 162.5 87 158.5 84 160.5 72.14 155.76 48.03 222.42 52.05 222.42 56 210.5"
       id="polygon122"
       style="fill:#ffffff" />
    <polygon
       points="124 148.5 123.35 147.43 115.15 147.43 124 159.5 132.85 147.43 124.65 147.43 124 148.5"
       id="polygon124"
       style="fill:#ffffff" />
    <polygon
       points="134.5 103 134.41 103.26 137.56 111.92 144 109.5 152.71 89.9 146.15 71.92 138.5 101 134.5 103"
       id="polygon126"
       style="fill:#ffffff" />
    <polygon
       points="141 120.5 140.8 120.83 142.56 125.66 144 123.5 156 121.5 161.19 113.14 155.75 98.23 145 120.5 141 120.5"
       id="polygon128"
       style="fill:#ffffff" />
    <polygon
       points="110.86 112.07 113.81 103.87 113.5 103 109.5 101 102.11 72.92 95.66 90.74 104 109.5 110.86 112.07"
       id="polygon130"
       style="fill:#ffffff" />
    <polygon
       points="104 123.5 105.78 126.17 107.52 121.35 107 120.5 103 120.5 92.65 99.07 87.28 113.9 92 121.5 104 123.5"
       id="polygon132"
       style="fill:#ffffff" />
  </g>
</svg>
