<svg id="Calque_6" data-name="Calque 6" xmlns="http://www.w3.org/2000/svg" viewBox="0 0 270 270"><defs><style>.cls-1{fill:#346b99;}</style></defs><title>[AS-Logo][Court][Noir][Vector]</title><polygon class="cls-1" points="126.29 141.24 115.17 125.94 106.84 147.16 125.37 147.16 123.02 144.23 126.29 141.24"/><polygon class="cls-1" points="146.98 144.23 144.63 147.16 163.82 147.16 155.2 125.43 143.71 141.24 146.98 144.23"/><polygon class="cls-1" points="80.56 92.33 37.02 77.36 46.81 93.33 46.81 107.3 69.68 138.24 82.43 145.63 95.03 113.69 80.56 92.33"/><polygon class="cls-1" points="190.59 214.59 167.66 207.12 158.95 193.14 154.6 192.14 143.15 170.2 126.85 170.2 115.4 192.14 111.05 193.14 102.34 207.12 80.51 214.23 77.59 221.69 107.78 212.11 117.58 198.13 124.11 198.13 135 175.18 145.89 198.13 152.42 198.13 162.22 212.11 218.83 230.07 216.65 223.09 213.33 222 193.53 222 190.59 214.59"/><polygon class="cls-1" points="53.35 223.09 51.17 230.07 76.59 222 56.67 222 53.35 223.09"/><polygon class="cls-1" points="200.32 138.24 223.19 107.3 223.19 93.33 232.98 77.36 189.44 92.33 175.49 112.93 188.32 145.19 200.32 138.24"/><polygon class="cls-1" points="211.21 148.23 270 66.38 255.85 70.37 205.77 140.24 189.45 148.02 192.29 155.16 211.21 148.23"/><polygon class="cls-1" points="156.77 188.15 161.13 190.15 166.57 196.14 185.77 202.46 172.97 170.2 150.83 170.2 146.98 171.18 156.77 188.15"/><polygon class="cls-1" points="143.71 204.12 155.69 223.09 157.86 217.1 145.89 204.12 143.71 204.12"/><polygon class="cls-1" points="140.44 198.13 135 184.16 129.56 198.13 129.56 205.12 115.4 227.08 135 270 154.6 227.08 140.44 205.12 140.44 198.13"/><polygon class="cls-1" points="146.33 103.07 135.18 74.95 123.9 103.67 135 132.25 146.33 103.07"/><polygon class="cls-1" points="159.12 71.78 161.67 62.88 135 0 108.33 62.88 111.17 72.78 135.24 11.77 159.12 71.78"/><polygon class="cls-1" points="135.71 147.16 153.29 120.61 149.76 111.71 148.06 112.29 135 140.24 121.94 112.29 120.69 111.86 117.05 121.13 134.29 147.16 135.71 147.16"/><polygon class="cls-1" points="100.16 82.35 96.89 91.33 100.87 98.88 104.15 90.58 100.16 82.35"/><polygon class="cls-1" points="173.1 91.33 169.84 82.35 166.26 89.73 169.57 98.05 173.1 91.33"/><polygon class="cls-1" points="64.23 140.24 14.15 70.37 0 66.38 58.79 148.23 78.55 155.47 81.34 148.39 64.23 140.24"/><polygon class="cls-1" points="108.87 190.15 113.23 188.15 123.02 171.18 119.17 170.2 97.79 170.2 85.27 202.11 103.43 196.14 108.87 190.15"/><polygon class="cls-1" points="124.11 204.12 112.14 217.1 114.31 223.09 126.29 204.12 124.11 204.12"/><polygon class="cls-1" points="77.46 222 77.59 221.69 76.59 222 77.46 222"/><polygon class="cls-1" points="192.29 155.16 178.55 160.2 175.28 158.21 160.04 162.2 162.22 158.21 175.28 152.22 178.55 153.22 189.45 148.02 188.32 145.19 179.64 150.22 174.19 148.23 160.04 155.21 155.69 164.2 142.62 169.19 143.15 170.2 150.83 170.2 166.57 166.19 175.28 171.18 188.35 171.18 209.03 210.11 213.33 222 218.89 222 192.29 155.16"/><polygon class="cls-1" points="60.97 210.11 81.65 171.18 94.72 171.18 103.43 166.19 119.17 170.2 126.85 170.2 127.38 169.19 114.31 164.2 109.96 155.21 95.81 148.23 90.36 150.22 82.43 145.63 81.34 148.39 91.45 153.22 94.72 152.22 107.78 158.21 109.96 162.2 94.72 158.21 91.45 160.2 78.55 155.47 52.29 222 56.67 222 60.97 210.11"/><polygon class="cls-1" points="135 148.23 134.29 147.16 125.37 147.16 135 159.21 144.63 147.16 135.71 147.16 135 148.23"/><polygon class="cls-1" points="146.43 102.81 146.33 103.07 149.76 111.71 156.77 109.3 166.26 89.73 159.12 71.78 150.79 100.81 146.43 102.81"/><polygon class="cls-1" points="153.51 120.28 153.29 120.61 155.2 125.43 156.77 123.27 169.84 121.28 175.49 112.93 169.57 98.05 157.86 120.28 153.51 120.28"/><polygon class="cls-1" points="120.69 111.86 123.9 103.67 123.57 102.81 119.21 100.81 111.17 72.78 104.15 90.58 113.23 109.3 120.69 111.86"/><polygon class="cls-1" points="113.23 123.27 115.17 125.94 117.05 121.13 116.49 120.28 112.14 120.28 100.87 98.88 95.03 113.69 100.16 121.28 113.23 123.27"/><polygon points="126.29 141.24 115.17 125.94 106.84 147.16 125.37 147.16 123.02 144.23 126.29 141.24"/><polygon points="146.98 144.23 144.63 147.16 163.82 147.16 155.2 125.43 143.71 141.24 146.98 144.23"/><polygon points="80.56 92.33 37.02 77.36 46.81 93.33 46.81 107.3 69.68 138.24 82.43 145.63 95.03 113.69 80.56 92.33"/><polygon points="190.59 214.59 167.66 207.12 158.95 193.14 154.6 192.14 143.15 170.2 126.85 170.2 115.4 192.14 111.05 193.14 102.34 207.12 80.51 214.23 77.59 221.69 107.78 212.11 117.58 198.13 124.11 198.13 135 175.18 145.89 198.13 152.42 198.13 162.22 212.11 218.83 230.07 216.65 223.09 213.33 222 193.53 222 190.59 214.59"/><polygon points="53.35 223.09 51.17 230.07 76.59 222 56.67 222 53.35 223.09"/><polygon points="200.32 138.24 223.19 107.3 223.19 93.33 232.98 77.36 189.44 92.33 175.49 112.93 188.32 145.19 200.32 138.24"/><polygon points="211.21 148.23 270 66.38 255.85 70.37 205.77 140.24 189.45 148.02 192.29 155.16 211.21 148.23"/><polygon points="156.77 188.15 161.13 190.15 166.57 196.14 185.77 202.46 172.97 170.2 150.83 170.2 146.98 171.18 156.77 188.15"/><polygon points="143.71 204.12 155.69 223.09 157.86 217.1 145.89 204.12 143.71 204.12"/><polygon points="140.44 198.13 135 184.16 129.56 198.13 129.56 205.12 115.4 227.08 135 270 154.6 227.08 140.44 205.12 140.44 198.13"/><polygon points="146.33 103.07 135.18 74.95 123.9 103.67 135 132.25 146.33 103.07"/><polygon points="159.12 71.78 161.67 62.88 135 0 108.33 62.88 111.17 72.78 135.24 11.77 159.12 71.78"/><polygon points="135.71 147.16 153.29 120.61 149.76 111.71 148.06 112.29 135 140.24 121.94 112.29 120.69 111.86 117.05 121.13 134.29 147.16 135.71 147.16"/><polygon points="100.16 82.35 96.89 91.33 100.87 98.88 104.15 90.58 100.16 82.35"/><polygon points="173.1 91.33 169.84 82.35 166.26 89.73 169.57 98.05 173.1 91.33"/><polygon points="64.23 140.24 14.15 70.37 0 66.38 58.79 148.23 78.55 155.47 81.34 148.39 64.23 140.24"/><polygon points="108.87 190.15 113.23 188.15 123.02 171.18 119.17 170.2 97.79 170.2 85.27 202.11 103.43 196.14 108.87 190.15"/><polygon points="124.11 204.12 112.14 217.1 114.31 223.09 126.29 204.12 124.11 204.12"/><polygon points="77.46 222 77.59 221.69 76.59 222 77.46 222"/><polygon points="192.29 155.16 178.55 160.2 175.28 158.21 160.04 162.2 162.22 158.21 175.28 152.22 178.55 153.22 189.45 148.02 188.32 145.19 179.64 150.22 174.19 148.23 160.04 155.21 155.69 164.2 142.62 169.19 143.15 170.2 150.83 170.2 166.57 166.19 175.28 171.18 188.35 171.18 209.03 210.11 213.33 222 218.89 222 192.29 155.16"/><polygon points="60.97 210.11 81.65 171.18 94.72 171.18 103.43 166.19 119.17 170.2 126.85 170.2 127.38 169.19 114.31 164.2 109.96 155.21 95.81 148.23 90.36 150.22 82.43 145.63 81.34 148.39 91.45 153.22 94.72 152.22 107.78 158.21 109.96 162.2 94.72 158.21 91.45 160.2 78.55 155.47 52.29 222 56.67 222 60.97 210.11"/><polygon points="135 148.23 134.29 147.16 125.37 147.16 135 159.21 144.63 147.16 135.71 147.16 135 148.23"/><polygon points="146.43 102.81 146.33 103.07 149.76 111.71 156.77 109.3 166.26 89.73 159.12 71.78 150.79 100.81 146.43 102.81"/><polygon points="153.51 120.28 153.29 120.61 155.2 125.43 156.77 123.27 169.84 121.28 175.49 112.93 169.57 98.05 157.86 120.28 153.51 120.28"/><polygon points="120.69 111.86 123.9 103.67 123.57 102.81 119.21 100.81 111.17 72.78 104.15 90.58 113.23 109.3 120.69 111.86"/><polygon points="113.23 123.27 115.17 125.94 117.05 121.13 116.49 120.28 112.14 120.28 100.87 98.88 95.03 113.69 100.16 121.28 113.23 123.27"/></svg>